# Blender v2.80 (sub 75) OBJ File: ''
# www.blender.org
mtllib I.mtl
o Path_265_1_Mesh.039
v 0.009471 0.326502 0.000000
v 0.009471 -0.326502 -0.000000
v -0.009471 -0.326502 -0.000000
v -0.009471 0.326502 0.000000
v 0.009471 0.326502 -0.050000
v 0.009471 -0.326502 -0.050000
v -0.009471 -0.326502 -0.050000
v -0.009471 0.326502 -0.050000
v 0.009471 0.326502 0.000000
v 0.009471 -0.326502 -0.000000
v -0.009471 -0.326502 -0.000000
v -0.009471 0.326502 0.000000
v 0.009203 0.326234 0.001000
v 0.009203 -0.326234 0.001000
v -0.009203 -0.326234 0.001000
v -0.009203 0.326234 0.001000
v 0.008471 0.325502 0.001732
v 0.008471 -0.325502 0.001732
v -0.008471 -0.325502 0.001732
v -0.008471 0.325502 0.001732
v 0.007471 0.324502 0.002000
v 0.007471 -0.324502 0.002000
v -0.007471 -0.324502 0.002000
v -0.007471 0.324502 0.002000
v 0.007471 0.324502 0.002000
v 0.007471 -0.324502 0.002000
v -0.007471 -0.324502 0.002000
v -0.007471 0.324502 0.002000
v 0.009471 0.326502 -0.050000
v 0.009471 -0.326502 -0.050000
v -0.009471 -0.326502 -0.050000
v -0.009471 0.326502 -0.050000
v 0.039354 0.326502 0.000000
v 0.039354 -0.326502 -0.000000
v 0.020412 -0.326502 -0.000000
v 0.020412 0.326502 0.000000
v 0.039354 0.326502 -0.050000
v 0.039354 -0.326502 -0.050000
v 0.020412 -0.326502 -0.050000
v 0.020412 0.326502 -0.050000
v 0.039354 0.326502 0.000000
v 0.039354 -0.326502 -0.000000
v 0.020412 -0.326502 -0.000000
v 0.020412 0.326502 0.000000
v 0.039086 0.326234 0.001000
v 0.039086 -0.326234 0.001000
v 0.020680 -0.326234 0.001000
v 0.020680 0.326234 0.001000
v 0.038354 0.325502 0.001732
v 0.038354 -0.325502 0.001732
v 0.021412 -0.325502 0.001732
v 0.021412 0.325502 0.001732
v 0.037354 0.324502 0.002000
v 0.037354 -0.324502 0.002000
v 0.022412 -0.324502 0.002000
v 0.022412 0.324502 0.002000
v 0.037354 0.324502 0.002000
v 0.037354 -0.324502 0.002000
v 0.022412 -0.324502 0.002000
v 0.022412 0.324502 0.002000
v 0.039354 0.326502 -0.050000
v 0.039354 -0.326502 -0.050000
v 0.020412 -0.326502 -0.050000
v 0.020412 0.326502 -0.050000
v 0.069227 0.326502 0.000000
v 0.069227 -0.326502 -0.000000
v 0.050295 -0.326502 -0.000000
v 0.050295 0.326502 0.000000
v 0.069227 0.326502 -0.050000
v 0.069227 -0.326502 -0.050000
v 0.050295 -0.326502 -0.050000
v 0.050295 0.326502 -0.050000
v 0.069227 0.326502 0.000000
v 0.069227 -0.326502 -0.000000
v 0.050295 -0.326502 -0.000000
v 0.050295 0.326502 0.000000
v 0.068959 0.326234 0.001000
v 0.068959 -0.326234 0.001000
v 0.050563 -0.326234 0.001000
v 0.050563 0.326234 0.001000
v 0.068227 0.325502 0.001732
v 0.068227 -0.325502 0.001732
v 0.051295 -0.325502 0.001732
v 0.051295 0.325502 0.001732
v 0.067227 0.324502 0.002000
v 0.067227 -0.324502 0.002000
v 0.052295 -0.324502 0.002000
v 0.052295 0.324502 0.002000
v 0.067227 0.324502 0.002000
v 0.067227 -0.324502 0.002000
v 0.052295 -0.324502 0.002000
v 0.052295 0.324502 0.002000
v 0.069227 0.326502 -0.050000
v 0.069227 -0.326502 -0.050000
v 0.050295 -0.326502 -0.050000
v 0.050295 0.326502 -0.050000
v 0.099100 0.326502 0.000000
v 0.099100 -0.326502 -0.000000
v 0.080168 -0.326502 -0.000000
v 0.080168 0.326502 0.000000
v 0.099100 0.326502 -0.050000
v 0.099100 -0.326502 -0.050000
v 0.080168 -0.326502 -0.050000
v 0.080168 0.326502 -0.050000
v 0.099100 0.326502 0.000000
v 0.099100 -0.326502 -0.000000
v 0.080168 -0.326502 -0.000000
v 0.080168 0.326502 0.000000
v 0.098832 0.326234 0.001000
v 0.098832 -0.326234 0.001000
v 0.080436 -0.326234 0.001000
v 0.080436 0.326234 0.001000
v 0.098100 0.325502 0.001732
v 0.098100 -0.325502 0.001732
v 0.081168 -0.325502 0.001732
v 0.081168 0.325502 0.001732
v 0.097100 0.324502 0.002000
v 0.097100 -0.324502 0.002000
v 0.082168 -0.324502 0.002000
v 0.082168 0.324502 0.002000
v 0.097100 0.324502 0.002000
v 0.097100 -0.324502 0.002000
v 0.082168 -0.324502 0.002000
v 0.082168 0.324502 0.002000
v 0.099100 0.326502 -0.050000
v 0.099100 -0.326502 -0.050000
v 0.080168 -0.326502 -0.050000
v 0.080168 0.326502 -0.050000
v 0.128982 0.326502 0.000000
v 0.128982 -0.326502 -0.000000
v 0.110041 -0.326502 -0.000000
v 0.110041 0.326502 0.000000
v 0.128982 0.326502 -0.050000
v 0.128982 -0.326502 -0.050000
v 0.110041 -0.326502 -0.050000
v 0.110041 0.326502 -0.050000
v 0.128982 0.326502 0.000000
v 0.128982 -0.326502 -0.000000
v 0.110041 -0.326502 -0.000000
v 0.110041 0.326502 0.000000
v 0.128714 0.326234 0.001000
v 0.128714 -0.326234 0.001000
v 0.110309 -0.326234 0.001000
v 0.110309 0.326234 0.001000
v 0.127982 0.325502 0.001732
v 0.127982 -0.325502 0.001732
v 0.111041 -0.325502 0.001732
v 0.111041 0.325502 0.001732
v 0.126982 0.324502 0.002000
v 0.126982 -0.324502 0.002000
v 0.112041 -0.324502 0.002000
v 0.112041 0.324502 0.002000
v 0.126982 0.324502 0.002000
v 0.126982 -0.324502 0.002000
v 0.112041 -0.324502 0.002000
v 0.112041 0.324502 0.002000
v 0.128982 0.326502 -0.050000
v 0.128982 -0.326502 -0.050000
v 0.110041 -0.326502 -0.050000
v 0.110041 0.326502 -0.050000
vt 0.319746 0.928666
vt 0.319746 0.071334
vt 0.339484 0.071334
vt 0.339484 0.928666
vt 0.726566 0.068692
vt 0.751588 0.068692
vt 0.751588 0.931308
vt 0.726566 0.931308
vt 0.359221 0.928666
vt 0.359221 0.071334
vt 0.378960 0.071334
vt 0.378960 0.928666
vt 0.687090 0.068692
vt 0.712112 0.068692
vt 0.712112 0.931308
vt 0.687090 0.931308
vt 0.398697 0.928666
vt 0.398697 0.071334
vt 0.418422 0.071334
vt 0.418422 0.928666
vt 0.647628 0.068692
vt 0.672637 0.068692
vt 0.672637 0.931308
vt 0.647628 0.931308
vt 0.438159 0.928666
vt 0.438159 0.071334
vt 0.457884 0.071334
vt 0.457884 0.928666
vt 0.608166 0.068692
vt 0.633175 0.068692
vt 0.633175 0.931308
vt 0.608166 0.931308
vt 0.477621 0.928666
vt 0.477621 0.071334
vt 0.497358 0.071334
vt 0.497358 0.928666
vt 0.568692 0.068692
vt 0.593713 0.068692
vt 0.593713 0.931308
vt 0.568692 0.931308
vt 0.502642 0.068692
vt 0.568692 0.068692
vt 0.568692 0.931308
vt 0.502642 0.931308
vt 0.317104 0.066050
vt 0.317104 0.000000
vt 0.342126 0.000000
vt 0.342126 0.066050
vt 0.314462 0.931308
vt 0.248412 0.931308
vt 0.248412 0.068692
vt 0.314462 0.068692
vt 0.342126 0.933950
vt 0.342126 1.000000
vt 0.317104 1.000000
vt 0.317104 0.933950
vt 0.501321 0.930954
vt 0.501321 0.069046
vt 0.502642 0.068692
vt 0.502642 0.931308
vt 0.341772 0.069046
vt 0.317458 0.069046
vt 0.317104 0.068692
vt 0.342126 0.068692
vt 0.315783 0.069046
vt 0.315783 0.930954
vt 0.314462 0.931308
vt 0.314462 0.068692
vt 0.317458 0.930954
vt 0.341772 0.930954
vt 0.342126 0.931308
vt 0.317104 0.931308
vt 0.340805 0.929987
vt 0.340805 0.070013
vt 0.318425 0.070013
vt 0.318425 0.929987
vt 0.339484 0.928666
vt 0.339484 0.071334
vt 0.319746 0.071334
vt 0.319746 0.928666
vt 0.502642 0.068692
vt 0.568692 0.068692
vt 0.568692 0.931308
vt 0.502642 0.931308
vt 0.356579 0.066050
vt 0.356579 0.000000
vt 0.381602 0.000000
vt 0.381602 0.066050
vt 0.314462 0.931308
vt 0.248412 0.931308
vt 0.248412 0.068692
vt 0.314462 0.068692
vt 0.381602 0.933950
vt 0.381602 1.000000
vt 0.356579 1.000000
vt 0.356579 0.933950
vt 0.501321 0.930954
vt 0.501321 0.069046
vt 0.502642 0.068692
vt 0.502642 0.931308
vt 0.381248 0.069046
vt 0.356933 0.069046
vt 0.356579 0.068692
vt 0.381602 0.068692
vt 0.315783 0.069046
vt 0.315783 0.930954
vt 0.314462 0.931308
vt 0.314462 0.068692
vt 0.356933 0.930954
vt 0.381248 0.930954
vt 0.381602 0.931308
vt 0.356579 0.931308
vt 0.380281 0.929987
vt 0.380281 0.070013
vt 0.357900 0.070013
vt 0.357900 0.929987
vt 0.378960 0.928666
vt 0.378960 0.071334
vt 0.359221 0.071334
vt 0.359221 0.928666
vt 0.502642 0.068692
vt 0.568692 0.068692
vt 0.568692 0.931308
vt 0.502642 0.931308
vt 0.396055 0.066050
vt 0.396055 0.000000
vt 0.421064 0.000000
vt 0.421064 0.066050
vt 0.314462 0.931308
vt 0.248412 0.931308
vt 0.248412 0.068692
vt 0.314462 0.068692
vt 0.421064 0.933950
vt 0.421064 1.000000
vt 0.396055 1.000000
vt 0.396055 0.933950
vt 0.501321 0.930954
vt 0.501321 0.069046
vt 0.502642 0.068692
vt 0.502642 0.931308
vt 0.420710 0.069046
vt 0.396409 0.069046
vt 0.396055 0.068692
vt 0.421064 0.068692
vt 0.315783 0.069046
vt 0.315783 0.930954
vt 0.314462 0.931308
vt 0.314462 0.068692
vt 0.396409 0.930954
vt 0.420710 0.930954
vt 0.421064 0.931308
vt 0.396055 0.931308
vt 0.419743 0.929987
vt 0.419743 0.070013
vt 0.397376 0.070013
vt 0.397376 0.929987
vt 0.418422 0.928666
vt 0.418422 0.071334
vt 0.398697 0.071334
vt 0.398697 0.928666
vt 0.502642 0.068692
vt 0.568692 0.068692
vt 0.568692 0.931308
vt 0.502642 0.931308
vt 0.435517 0.066050
vt 0.435517 0.000000
vt 0.460526 0.000000
vt 0.460526 0.066050
vt 0.314462 0.931308
vt 0.248412 0.931308
vt 0.248412 0.068692
vt 0.314462 0.068692
vt 0.460526 0.933950
vt 0.460526 1.000000
vt 0.435517 1.000000
vt 0.435517 0.933950
vt 0.501321 0.930954
vt 0.501321 0.069046
vt 0.502642 0.068692
vt 0.502642 0.931308
vt 0.460172 0.069046
vt 0.435871 0.069046
vt 0.435517 0.068692
vt 0.460526 0.068692
vt 0.315783 0.069046
vt 0.315783 0.930954
vt 0.314462 0.931308
vt 0.314462 0.068692
vt 0.435871 0.930954
vt 0.460172 0.930954
vt 0.460526 0.931308
vt 0.435517 0.931308
vt 0.459205 0.929987
vt 0.459205 0.070013
vt 0.436838 0.070013
vt 0.436838 0.929987
vt 0.457884 0.928666
vt 0.457884 0.071334
vt 0.438159 0.071334
vt 0.438159 0.928666
vt 0.502642 0.068692
vt 0.568692 0.068692
vt 0.568692 0.931308
vt 0.502642 0.931308
vt 0.474979 0.066050
vt 0.474979 0.000000
vt 0.500000 0.000000
vt 0.500000 0.066050
vt 0.314462 0.931308
vt 0.248412 0.931308
vt 0.248412 0.068692
vt 0.314462 0.068692
vt 0.500000 0.933950
vt 0.500000 1.000000
vt 0.474979 1.000000
vt 0.474979 0.933950
vt 0.501321 0.930954
vt 0.501321 0.069046
vt 0.502642 0.068692
vt 0.502642 0.931308
vt 0.499646 0.069046
vt 0.475333 0.069046
vt 0.474979 0.068692
vt 0.500000 0.068692
vt 0.315783 0.069046
vt 0.315783 0.930954
vt 0.314462 0.931308
vt 0.314462 0.068692
vt 0.475333 0.930954
vt 0.499646 0.930954
vt 0.500000 0.931308
vt 0.474979 0.931308
vt 0.498679 0.929987
vt 0.498679 0.070013
vt 0.476300 0.070013
vt 0.476300 0.929987
vt 0.497358 0.928666
vt 0.497358 0.071334
vt 0.477621 0.071334
vt 0.477621 0.928666
vn 0.0000 -0.0000 1.0000
vn 0.0000 0.0000 -1.0000
vn 1.0000 0.0000 0.0000
vn 0.0000 -1.0000 0.0000
vn -1.0000 0.0000 0.0000
vn 0.0000 1.0000 0.0000
vn 0.8660 0.0000 0.5000
vn 0.9659 -0.0000 0.2588
vn 0.0000 -0.8660 0.5000
vn 0.0000 -0.9659 0.2588
vn -0.8660 -0.0000 0.5000
vn -0.9659 -0.0000 0.2588
vn -0.0000 0.8660 0.5000
vn 0.0000 0.9659 0.2588
vn 0.5000 0.0000 0.8660
vn 0.0000 -0.5000 0.8660
vn -0.5000 -0.0000 0.8660
vn -0.0000 0.5000 0.8660
vn 0.2588 -0.0000 0.9659
vn 0.0000 -0.2588 0.9659
vn -0.2588 -0.0000 0.9659
vn 0.0000 0.2588 0.9659
vn 0.0000 -0.9659 0.2589
vn 0.0000 0.9659 0.2589
usemtl None
s 1
f 28/1/1 27/2/1 26/3/1 25/4/1
f 30/5/2 31/6/2 32/7/2 29/8/2
f 60/9/1 59/10/1 58/11/1 57/12/1
f 62/13/2 63/14/2 64/15/2 61/16/2
f 92/17/1 91/18/1 90/19/1 89/20/1
f 94/21/2 95/22/2 96/23/2 93/24/2
f 124/25/1 123/26/1 122/27/1 121/28/1
f 126/29/2 127/30/2 128/31/2 125/32/2
f 156/33/1 155/34/1 154/35/1 153/36/1
f 158/37/2 159/38/2 160/39/2 157/40/2
f 2/41/3 6/42/3 5/43/3 1/44/3
f 3/45/4 7/46/4 6/47/4 2/48/4
f 4/49/5 8/50/5 7/51/5 3/52/5
f 1/53/6 5/54/6 8/55/6 4/56/6
f 13/57/7 14/58/7 10/59/8 9/60/8
f 14/61/9 15/62/9 11/63/10 10/64/10
f 15/65/11 16/66/11 12/67/12 11/68/12
f 16/69/13 13/70/13 9/71/14 12/72/14
f 17/73/15 18/74/15 14/61/7 13/70/7
f 18/74/16 19/75/16 15/62/9 14/61/9
f 19/75/17 20/76/17 16/69/11 15/62/11
f 20/76/18 17/73/18 13/70/13 16/69/13
f 21/77/19 22/78/19 18/74/15 17/73/15
f 22/78/20 23/79/20 19/75/16 18/74/16
f 23/79/21 24/80/21 20/76/17 19/75/17
f 24/80/22 21/77/22 17/73/18 20/76/18
f 34/81/3 38/82/3 37/83/3 33/84/3
f 35/85/4 39/86/4 38/87/4 34/88/4
f 36/89/5 40/90/5 39/91/5 35/92/5
f 33/93/6 37/94/6 40/95/6 36/96/6
f 45/97/7 46/98/7 42/99/8 41/100/8
f 46/101/9 47/102/9 43/103/23 42/104/23
f 47/105/11 48/106/11 44/107/12 43/108/12
f 48/109/13 45/110/13 41/111/24 44/112/24
f 49/113/15 50/114/15 46/101/7 45/110/7
f 50/114/16 51/115/16 47/102/9 46/101/9
f 51/115/17 52/116/17 48/109/11 47/102/11
f 52/116/18 49/113/18 45/110/13 48/109/13
f 53/117/19 54/118/19 50/114/15 49/113/15
f 54/118/20 55/119/20 51/115/16 50/114/16
f 55/119/21 56/120/21 52/116/17 51/115/17
f 56/120/22 53/117/22 49/113/18 52/116/18
f 66/121/3 70/122/3 69/123/3 65/124/3
f 67/125/4 71/126/4 70/127/4 66/128/4
f 68/129/5 72/130/5 71/131/5 67/132/5
f 65/133/6 69/134/6 72/135/6 68/136/6
f 77/137/7 78/138/7 74/139/8 73/140/8
f 78/141/9 79/142/9 75/143/10 74/144/10
f 79/145/11 80/146/11 76/147/12 75/148/12
f 80/149/13 77/150/13 73/151/14 76/152/14
f 81/153/15 82/154/15 78/141/7 77/150/7
f 82/154/16 83/155/16 79/142/9 78/141/9
f 83/155/17 84/156/17 80/149/11 79/142/11
f 84/156/18 81/153/18 77/150/13 80/149/13
f 85/157/19 86/158/19 82/154/15 81/153/15
f 86/158/20 87/159/20 83/155/16 82/154/16
f 87/159/21 88/160/21 84/156/17 83/155/17
f 88/160/22 85/157/22 81/153/18 84/156/18
f 98/161/3 102/162/3 101/163/3 97/164/3
f 99/165/4 103/166/4 102/167/4 98/168/4
f 100/169/5 104/170/5 103/171/5 99/172/5
f 97/173/6 101/174/6 104/175/6 100/176/6
f 109/177/7 110/178/7 106/179/8 105/180/8
f 110/181/9 111/182/9 107/183/10 106/184/10
f 111/185/11 112/186/11 108/187/12 107/188/12
f 112/189/13 109/190/13 105/191/14 108/192/14
f 113/193/15 114/194/15 110/181/7 109/190/7
f 114/194/16 115/195/16 111/182/9 110/181/9
f 115/195/17 116/196/17 112/189/11 111/182/11
f 116/196/18 113/193/18 109/190/13 112/189/13
f 117/197/19 118/198/19 114/194/15 113/193/15
f 118/198/20 119/199/20 115/195/16 114/194/16
f 119/199/21 120/200/21 116/196/17 115/195/17
f 120/200/22 117/197/22 113/193/18 116/196/18
f 130/201/3 134/202/3 133/203/3 129/204/3
f 131/205/4 135/206/4 134/207/4 130/208/4
f 132/209/5 136/210/5 135/211/5 131/212/5
f 129/213/6 133/214/6 136/215/6 132/216/6
f 141/217/7 142/218/7 138/219/8 137/220/8
f 142/221/9 143/222/9 139/223/10 138/224/10
f 143/225/11 144/226/11 140/227/12 139/228/12
f 144/229/13 141/230/13 137/231/14 140/232/14
f 145/233/15 146/234/15 142/221/7 141/230/7
f 146/234/16 147/235/16 143/222/9 142/221/9
f 147/235/17 148/236/17 144/229/11 143/222/11
f 148/236/18 145/233/18 141/230/13 144/229/13
f 149/237/19 150/238/19 146/234/15 145/233/15
f 150/238/20 151/239/20 147/235/16 146/234/16
f 151/239/21 152/240/21 148/236/17 147/235/17
f 152/240/22 149/237/22 145/233/18 148/236/18
